<svg width="1440" height="258" viewBox="0 0 1440 258" fill="none" xmlns="http://www.w3.org/2000/svg">
<g clip-path="url(#clip0_1_11)">
<mask id="path-1-outside-1_1_11" maskUnits="userSpaceOnUse" x="0" y="-1" width="1440" height="259" fill="black">
<rect fill="white" y="-1" width="1440" height="259"/>
<path d="M0 0H1440V258H0V0Z"/>
</mask>
<g filter="url(#filter0_f_1_11)">
<rect x="80" y="-192" width="1280" height="384" rx="192" fill="#0F0C12"/>
</g>
<g opacity="0.5">
<g clip-path="url(#clip1_1_11)">
<path fill-rule="evenodd" clip-rule="evenodd" d="M334.434 59.983C334.501 60.7438 335.115 61.7123 336.178 61.7123H336.799C337.041 61.7123 337.238 61.5163 337.238 61.277V47.7095H337.235C337.223 47.4809 337.033 47.2978 336.799 47.2978H334.873C334.64 47.2978 334.449 47.4809 334.437 47.7095H334.434V48.8119C333.254 47.3682 331.393 46.769 329.527 46.769C325.284 46.769 321.846 50.1837 321.846 54.3961C321.846 58.6088 325.284 62.0235 329.527 62.0235C331.393 62.0235 333.427 61.3049 334.434 59.9813V59.983ZM329.534 59.3541C326.836 59.3541 324.649 57.1345 324.649 54.3961C324.649 51.6582 326.836 49.4385 329.534 49.4385C332.232 49.4385 334.419 51.6582 334.419 54.3961C334.419 57.1345 332.232 59.3541 329.534 59.3541Z" fill="white"/>
<path fill-rule="evenodd" clip-rule="evenodd" d="M319.409 53.4289C319.409 49.4715 316.895 46.8017 312.885 46.8017C310.971 46.8017 309.403 47.9007 308.848 48.8447C308.729 48.1065 308.334 47.3306 307.11 47.3306H306.486C306.245 47.3306 306.048 47.5268 306.048 47.7661V60.0169C306.048 60.0173 306.048 60.0182 306.048 60.0188V61.3348H306.05C306.063 61.563 306.253 61.7462 306.486 61.7462H308.413C308.442 61.7462 308.471 61.7427 308.499 61.7374C308.512 61.7349 308.524 61.7299 308.536 61.7264C308.551 61.7221 308.566 61.7187 308.579 61.7131C308.596 61.706 308.612 61.6966 308.628 61.6878C308.636 61.683 308.644 61.6797 308.651 61.6747C308.671 61.6624 308.688 61.6476 308.705 61.6325C308.708 61.6297 308.711 61.6278 308.714 61.6252C308.733 61.6068 308.751 61.5865 308.766 61.5655C308.815 61.4997 308.844 61.4202 308.849 61.3348H308.851V53.3201C308.851 51.1947 310.587 49.4715 312.727 49.4715C314.868 49.4715 316.604 51.1947 316.604 53.3201L316.605 60.0193L316.606 60.0169C316.606 60.0229 316.607 60.0289 316.607 60.0353V61.3348H316.609C316.622 61.563 316.812 61.7462 317.045 61.7462H318.972C319.002 61.7462 319.03 61.7427 319.058 61.7374C319.07 61.7353 319.08 61.7307 319.091 61.7276C319.107 61.723 319.123 61.7192 319.138 61.7131C319.154 61.7066 319.169 61.6976 319.183 61.6892C319.193 61.6842 319.202 61.6805 319.211 61.6747C319.229 61.6631 319.245 61.6491 319.261 61.6353C319.265 61.6315 319.27 61.6287 319.273 61.6249C319.292 61.6074 319.308 61.5885 319.323 61.5687C319.324 61.5672 319.325 61.566 319.326 61.5646C319.374 61.4994 319.403 61.4208 319.408 61.3359C319.408 61.3353 319.408 61.3348 319.408 61.3348H319.411L319.409 53.4289Z" fill="white"/>
<path fill-rule="evenodd" clip-rule="evenodd" d="M299.345 59.9829C299.412 60.7438 300.026 61.7122 301.088 61.7122H301.71C301.951 61.7122 302.148 61.5162 302.148 61.2769V47.7095H302.146C302.133 47.4809 301.943 47.2978 301.71 47.2978H299.783C299.55 47.2978 299.36 47.4809 299.347 47.7095H299.345V48.8119C298.164 47.3682 296.303 46.769 294.437 46.769C290.195 46.769 286.756 50.1837 286.756 54.3961C286.756 58.6088 290.195 62.0236 294.437 62.0236C296.303 62.0236 298.337 61.305 299.345 59.9812L299.345 59.9829ZM294.444 59.3541C291.747 59.3541 289.559 57.1346 289.559 54.3961C289.559 51.6582 291.747 49.4385 294.444 49.4385C297.143 49.4385 299.329 51.6582 299.329 54.3961C299.329 57.1346 297.143 59.3541 294.444 59.3541Z" fill="white"/>
<path fill-rule="evenodd" clip-rule="evenodd" d="M275.363 58.0398C276.649 58.9245 278.053 59.3543 279.402 59.3543C280.687 59.3543 282.016 58.6927 282.016 57.541C282.016 56.0036 279.121 55.7644 277.302 55.1505C275.482 54.5366 273.915 53.2675 273.915 51.2124C273.915 48.0676 276.737 46.7688 279.371 46.7688C281.04 46.7688 282.761 47.3152 283.878 48.098C284.262 48.3872 284.028 48.7193 284.028 48.7193L282.962 50.2305C282.843 50.4007 282.633 50.5477 282.333 50.3635C282.032 50.1794 280.978 49.4383 279.371 49.4383C277.764 49.4383 276.796 50.1752 276.796 51.0886C276.796 52.1838 278.054 52.5283 279.527 52.9016C282.095 53.5889 284.897 54.4151 284.897 57.541C284.897 60.3118 282.287 62.0241 279.402 62.0241C277.216 62.0241 275.355 61.4054 273.794 60.268C273.469 59.9448 273.696 59.6447 273.696 59.6447L274.756 58.1412C274.972 57.8601 275.244 57.9582 275.363 58.0398Z" fill="white"/>
<path fill-rule="evenodd" clip-rule="evenodd" d="M267.956 59.9829C268.023 60.7438 268.637 61.7122 269.699 61.7122H270.321C270.562 61.7122 270.76 61.5162 270.76 61.2769V47.7095H270.757C270.744 47.4809 270.554 47.2978 270.321 47.2978H268.395C268.162 47.2978 267.971 47.4809 267.958 47.7095H267.956V48.8119C266.776 47.3682 264.915 46.769 263.048 46.769C258.806 46.769 255.367 50.1837 255.367 54.3961C255.367 58.6088 258.806 62.0236 263.048 62.0236C264.915 62.0236 266.948 61.305 267.956 59.9812L267.956 59.9829ZM263.056 59.3541C260.358 59.3541 258.171 57.1346 258.171 54.3961C258.171 51.6582 260.358 49.4385 263.056 49.4385C265.754 49.4385 267.941 51.6582 267.941 54.3961C267.941 57.1346 265.754 59.3541 263.056 59.3541Z" fill="white"/>
<path fill-rule="evenodd" clip-rule="evenodd" d="M244.599 54.9146C241.744 54.9146 239.43 57.2107 239.43 60.0434C239.43 62.876 241.744 65.1721 244.599 65.1721C247.453 65.1721 249.768 62.876 249.768 60.0434C249.768 57.2107 247.453 54.9146 244.599 54.9146ZM231.169 54.9151C228.314 54.9151 226 57.2107 226 60.0434C226 62.876 228.314 65.1721 231.169 65.1721C234.024 65.1721 236.338 62.876 236.338 60.0434C236.338 57.2107 234.024 54.9151 231.169 54.9151ZM243.053 48.5036C243.053 51.3363 240.739 53.6327 237.884 53.6327C235.029 53.6327 232.715 51.3363 232.715 48.5036C232.715 45.6714 235.029 43.375 237.884 43.375C240.739 43.375 243.053 45.6714 243.053 48.5036Z" fill="white"/>
</g>
<path d="M412.797 43.468V51.4198H405.476V43.468H402V62.4497H405.476V54.7561H412.797V62.4497H416.273V43.468H412.797Z" fill="white"/>
<path d="M427.397 56.3134C427.397 57.0741 427.094 57.8037 426.554 58.3416C426.015 58.8795 425.284 59.1817 424.521 59.1817C423.759 59.1817 423.027 58.8795 422.488 58.3416C421.949 57.8037 421.646 57.0741 421.646 56.3134V48.1833H418.349V56.3134C418.349 57.9448 418.998 59.5094 420.155 60.6629C421.311 61.8165 422.88 62.4645 424.515 62.4645C426.151 62.4645 427.719 61.8165 428.876 60.6629C430.032 59.5094 430.682 57.9448 430.682 56.3134V48.1833H427.397V56.3134Z" fill="white"/>
<path d="M451.825 49.0212C451.825 47.3547 452.93 46.8264 454.141 46.8264C455.117 46.8264 456.406 47.5671 457.249 48.4657L459.409 45.9278C458.331 44.4737 456.144 43.468 454.354 43.468C450.778 43.468 448.191 45.5575 448.191 49.0212C448.191 55.4475 456.066 53.409 456.066 57.0052C456.066 58.1145 454.986 59.0947 453.75 59.0947C451.8 59.0947 451.168 58.1434 450.272 57.1377L447.876 59.623C449.409 61.5001 451.299 62.4531 453.564 62.4531C456.961 62.4531 459.695 60.3381 459.695 57.0324C459.695 49.8977 451.82 52.1146 451.82 49.0212" fill="white"/>
<path d="M500.541 59.4172C498.593 59.4172 498.039 58.5763 498.039 57.2887V51.5894H501.067V48.7016H498.039V44.8913L494.696 46.3879V57.9971C494.696 60.9665 496.75 62.463 499.567 62.463C500.009 62.4711 500.45 62.4358 500.885 62.3577L501.701 59.3628C501.333 59.3883 500.911 59.4138 500.541 59.4138" fill="white"/>
<path d="M439.947 48.2791C438.314 48.2791 437.174 48.7514 436.073 49.8301V43.5822H432.77V55.1624C432.77 59.4976 435.912 62.467 439.443 62.467C443.36 62.467 446.805 59.4449 446.805 55.3748C446.805 51.3556 443.634 48.2808 439.947 48.2808V48.2791ZM439.926 59.1527C439.185 59.1527 438.461 58.9336 437.845 58.5229C437.229 58.1123 436.749 57.5286 436.465 56.8457C436.181 56.1628 436.107 55.4114 436.252 54.6864C436.396 53.9615 436.753 53.2956 437.277 52.7729C437.801 52.2503 438.469 51.8943 439.195 51.7501C439.922 51.6059 440.676 51.6799 441.36 51.9628C442.045 52.2456 442.63 52.7247 443.042 53.3392C443.453 53.9538 443.673 54.6764 443.673 55.4155C443.673 56.4067 443.278 57.3573 442.576 58.0581C441.873 58.759 440.92 59.1527 439.926 59.1527Z" fill="white"/>
<path d="M475.801 55.2007C475.801 51.1238 472.363 48.1085 468.439 48.1085C464.909 48.1085 461.767 51.0779 461.767 55.4131V67.0001H465.069V60.7437C466.169 61.8207 467.31 62.2947 468.942 62.2947C472.629 62.2947 475.8 59.2216 475.8 55.2007H475.801ZM472.675 55.16C472.675 55.8991 472.455 56.6217 472.043 57.2363C471.632 57.8508 471.046 58.3298 470.362 58.6127C469.677 58.8956 468.924 58.9696 468.197 58.8254C467.47 58.6812 466.803 58.3252 466.279 57.8026C465.755 57.2799 465.398 56.614 465.254 55.8891C465.109 55.1641 465.183 54.4127 465.467 53.7298C465.75 53.0469 466.231 52.4632 466.847 52.0526C467.463 51.6419 468.187 51.4228 468.928 51.4228C469.922 51.4228 470.875 51.8165 471.577 52.5174C472.28 53.2182 472.675 54.1688 472.675 55.16Z" fill="white"/>
<path d="M486.436 48.0558V44.7807C486.87 44.5785 487.237 44.2575 487.495 43.8551C487.753 43.4527 487.891 42.9855 487.894 42.5078V42.4313C487.892 41.7637 487.625 41.124 487.152 40.6519C486.679 40.1799 486.037 39.9139 485.368 39.9121H485.291C484.622 39.9139 483.981 40.1799 483.508 40.6519C483.034 41.124 482.768 41.7637 482.766 42.4313V42.5078C482.768 42.9855 482.906 43.4527 483.164 43.8551C483.422 44.2575 483.79 44.5785 484.224 44.7807V48.0558C482.976 48.2461 481.801 48.7618 480.818 49.5507L471.802 42.5536C471.866 42.3228 471.901 42.0848 471.904 41.8453C471.905 41.2832 471.738 40.7335 471.426 40.2658C471.113 39.798 470.669 39.4332 470.149 39.2175C469.628 39.0018 469.055 38.9448 468.503 39.0538C467.95 39.1628 467.442 39.4329 467.043 39.8299C466.644 40.2269 466.372 40.7329 466.261 41.2841C466.151 41.8352 466.207 42.4067 466.422 42.9263C466.637 43.4459 467.001 43.8901 467.469 44.203C467.938 44.5158 468.488 44.6832 469.052 44.6838C469.547 44.682 470.032 44.5502 470.46 44.3016L479.324 51.1849C478.526 52.3864 478.109 53.8002 478.129 55.2415C478.149 56.6829 478.604 58.0848 479.435 59.2641L476.737 61.9548C476.521 61.8861 476.295 61.8494 476.068 61.8461C475.605 61.8461 475.152 61.9831 474.767 62.2398C474.382 62.4964 474.082 62.8612 473.905 63.288C473.727 63.7148 473.681 64.1845 473.771 64.6376C473.862 65.0907 474.085 65.5069 474.412 65.8335C474.74 66.1602 475.157 66.3826 475.611 66.4728C476.065 66.5629 476.536 66.5166 476.964 66.3398C477.392 66.1631 477.758 65.8637 478.015 65.4796C478.272 65.0954 478.41 64.6439 478.41 64.1819C478.406 63.9552 478.37 63.7302 478.301 63.5143L480.969 60.8524C481.84 61.5161 482.852 61.9725 483.927 62.1867C485.002 62.401 486.111 62.3674 487.171 62.0886C488.231 61.8098 489.213 61.2931 490.043 60.578C490.872 59.8629 491.526 58.9682 491.956 57.9623C492.386 56.9564 492.579 55.8659 492.522 54.7739C492.465 53.682 492.158 52.6176 491.626 51.6619C491.093 50.7062 490.349 49.8845 489.449 49.2595C488.55 48.6345 487.519 48.2228 486.436 48.0558ZM485.331 58.8292C484.6 58.8292 483.886 58.6132 483.279 58.2085C482.672 57.8038 482.199 57.2286 481.92 56.5557C481.64 55.8827 481.567 55.1422 481.709 54.4278C481.852 53.7134 482.204 53.0572 482.72 52.5422C483.236 52.0271 483.894 51.6763 484.61 51.5342C485.326 51.3921 486.069 51.4651 486.743 51.7438C487.418 52.0226 487.995 52.4946 488.4 53.1002C488.806 53.7059 489.023 54.4179 489.023 55.1463C489.023 56.1231 488.634 57.0598 487.941 57.7505C487.249 58.4412 486.31 58.8292 485.331 58.8292Z" fill="white"/>
<g clip-path="url(#clip2_1_11)">
<path fill-rule="evenodd" clip-rule="evenodd" d="M639.358 54.6655C639.358 49.496 636.831 45.4169 632.002 45.4169C627.152 45.4169 624.218 49.496 624.218 54.6252C624.218 60.7034 627.682 63.7728 632.654 63.7728C635.079 63.7728 636.913 63.2276 638.298 62.4603V58.4216C636.913 59.1081 635.323 59.5322 633.306 59.5322C631.329 59.5322 629.577 58.8456 629.353 56.4628H639.317C639.317 56.2003 639.358 55.1502 639.358 54.6655ZM629.291 52.7472C629.291 50.4653 630.698 49.5162 631.981 49.5162C633.224 49.5162 634.549 50.4653 634.549 52.7472H629.291Z" fill="white"/>
<path fill-rule="evenodd" clip-rule="evenodd" d="M616.352 45.4169C614.355 45.4169 613.071 46.3458 612.358 46.992L612.093 45.74H607.61V69.2857L612.704 68.2154L612.725 62.5006C613.458 63.0257 614.538 63.7728 616.331 63.7728C619.979 63.7728 623.3 60.865 623.3 54.4636C623.28 48.6075 619.918 45.4169 616.352 45.4169ZM615.129 59.3302C613.927 59.3302 613.214 58.9062 612.725 58.3811L612.704 50.8893C613.234 50.3037 613.968 49.8999 615.129 49.8999C616.984 49.8999 618.267 51.9596 618.267 54.605C618.267 57.3109 617.004 59.3302 615.129 59.3302Z" fill="white"/>
<path fill-rule="evenodd" clip-rule="evenodd" d="M600.6 44.2254L605.715 43.135V39.0357L600.6 40.1059V44.2254Z" fill="white"/>
<path d="M605.715 45.7601H600.6V63.4295H605.715V45.7601Z" fill="white"/>
<path fill-rule="evenodd" clip-rule="evenodd" d="M595.119 47.2545L594.793 45.7601H590.391V63.4295H595.485V51.4547C596.688 49.8998 598.725 50.1825 599.357 50.4047V45.7601C598.705 45.5178 596.321 45.0736 595.119 47.2545Z" fill="white"/>
<path fill-rule="evenodd" clip-rule="evenodd" d="M584.93 41.3781L579.958 42.4282L579.938 58.6032C579.938 61.5919 582.2 63.793 585.215 63.793C586.886 63.793 588.109 63.4901 588.781 63.1266V59.0273C588.129 59.2898 584.91 60.2187 584.91 57.2301V50.0613H588.781V45.7601H584.91L584.93 41.3781Z" fill="white"/>
<path fill-rule="evenodd" clip-rule="evenodd" d="M571.155 50.8894C571.155 50.1018 571.807 49.7989 572.887 49.7989C574.436 49.7989 576.392 50.2634 577.941 51.0913V46.3458C576.25 45.6794 574.579 45.4169 572.887 45.4169C568.751 45.4169 566 47.5574 566 51.1317C566 56.7051 573.743 55.8166 573.743 58.2196C573.743 59.1485 572.928 59.4514 571.787 59.4514C570.096 59.4514 567.936 58.7648 566.224 57.8359V62.642C568.119 63.4497 570.035 63.793 571.787 63.793C576.026 63.793 578.939 61.7131 578.939 58.0985C578.919 52.0808 571.155 53.151 571.155 50.8894Z" fill="white"/>
</g>
<g clip-path="url(#clip3_1_11)">
<path d="M739.641 50.5157C739.641 48.54 737.668 46.4325 734.38 46.4325C730.698 46.4325 726.489 49.1985 725.832 54.7305C725.174 60.2625 728.594 62.7651 732.145 62.7651C735.695 62.7651 737.405 61.4479 739.246 59.6039C737.668 57.6282 735.564 58.5502 735.169 58.6819C734.775 58.9454 734.117 59.2088 733.065 59.2088C731.75 59.2088 730.303 58.5502 730.303 56.0477C738.983 55.1257 739.641 52.4914 739.641 50.5157ZM735.432 50.7791C735.432 51.4377 735.169 52.4914 730.829 53.0182C731.75 49.7254 733.46 49.462 734.249 49.462C735.038 49.5937 735.432 50.1205 735.432 50.7791ZM720.834 51.306C720.834 51.306 718.993 57.1014 718.861 57.6282C718.861 57.1014 717.415 46.696 717.415 46.696C714.258 46.696 712.549 48.9351 711.759 51.306C711.759 51.306 709.524 57.1014 709.392 57.6282C709.261 57.2331 708.998 51.4377 708.998 51.4377C708.735 48.54 706.104 46.696 704 46.696L706.63 62.5016C709.918 62.5016 711.759 60.2625 712.68 57.8917C712.68 57.8917 714.653 52.7548 714.784 52.4914C714.784 52.7548 716.231 62.5016 716.231 62.5016C719.519 62.5016 721.36 60.3942 722.281 58.1551L726.884 46.696C723.464 46.696 721.755 48.9351 720.834 51.306ZM751.872 46.3008C749.899 46.3008 748.321 47.3545 747.006 49.0668L748.058 39.5834C745.296 39.5834 743.192 41.9543 742.666 45.3788L740.562 62.3699C742.14 62.3699 743.718 61.9748 744.639 60.7894C745.428 61.8431 746.611 62.6334 748.321 62.6334C752.924 62.6334 756.081 57.3648 756.081 52.3597C756.212 47.7497 753.976 46.3008 751.872 46.3008ZM751.346 54.4671C750.82 57.2331 749.373 59.0771 747.795 59.0771C746.348 59.0771 745.691 58.4185 745.691 58.4185C745.954 56.0477 746.217 54.4671 746.743 53.15C747.269 51.8328 748.584 49.8571 749.899 49.8571C751.214 49.9888 751.872 51.7011 751.346 54.4671ZM767.654 46.696H764.498V46.5642C764.761 44.4568 765.155 43.4031 766.865 43.2714C767.917 43.1397 768.443 42.6128 768.575 41.9543C768.706 41.4274 768.969 39.7151 768.969 39.7151C762.525 39.7151 760.552 42.4811 760.026 46.696V46.8277H759.895C758.842 46.8277 757.659 48.0131 757.527 49.462L757.396 49.9888H759.5L757.659 64.7408L757.133 67.3751C757.264 67.3751 757.264 67.3751 757.396 67.3751C760.421 67.2434 762.262 64.8725 762.788 61.4479L764.235 49.8571H765.287C766.207 49.8571 767.391 48.9351 767.654 47.2228V46.696ZM784.225 46.4325C780.543 46.4325 777.123 49.1985 776.071 53.4134C775.019 57.6282 776.597 62.7651 781.989 62.7651C787.381 62.7651 790.538 57.4965 790.538 53.15C790.406 48.8034 787.513 46.4325 784.225 46.4325ZM785.672 54.3354C785.54 56.3111 784.62 59.2088 782.252 59.2088C779.885 59.2088 780.28 55.7842 780.411 54.2037C780.674 52.4914 781.595 49.9888 783.699 49.9888C785.672 49.9888 785.935 52.228 785.672 54.3354ZM808.687 51.306C808.687 51.306 806.846 57.1014 806.714 57.6282C806.714 57.1014 805.268 46.696 805.268 46.696C802.111 46.696 800.402 48.9351 799.613 51.306C799.613 51.306 797.377 57.1014 797.245 57.6282C797.245 57.2331 796.851 51.4377 796.851 51.4377C796.719 48.54 793.957 46.8277 791.853 46.8277L794.483 62.6334C797.771 62.6334 799.613 60.3942 800.533 58.0234C800.533 58.0234 802.506 52.8865 802.637 52.6231C802.637 52.8865 804.084 62.6334 804.084 62.6334C807.372 62.6334 809.213 60.5259 810.134 58.2868L814.474 46.696C811.186 46.696 809.476 48.9351 808.687 51.306ZM770.679 39.7151L768.049 61.3162L767.522 63.9505C767.654 63.9505 767.654 63.9505 767.786 63.9505C770.679 63.9505 772.783 61.3162 773.046 58.1551L774.624 45.774C775.019 42.086 772.652 39.7151 770.679 39.7151Z" fill="white"/>
</g>
<path fill-rule="evenodd" clip-rule="evenodd" d="M942.319 58.3652C941.352 58.5897 940.852 58.2901 940.852 57.6452C940.852 56.7614 941.759 56.4077 943.055 56.4077C943.625 56.4077 944.163 56.4572 944.163 56.4572C944.163 56.8356 943.347 58.1264 942.319 58.3652ZM943.303 49.5173C940.208 49.5173 937.986 50.6635 937.986 50.6635V54.0331C937.986 54.0331 940.439 52.6127 942.43 52.6127C944.017 52.6127 944.213 53.4756 944.141 54.1914C944.141 54.1914 943.682 54.0693 942.285 54.0693C938.991 54.0693 937.328 55.5772 937.328 57.9947C937.328 60.2881 939.197 61.2464 940.771 61.2464C943.068 61.2464 944.078 59.6914 944.388 58.9539C944.603 58.4422 944.643 58.0972 944.836 58.0972C945.057 58.0972 944.983 58.3447 944.972 58.8539C944.953 59.746 944.996 60.4201 945.136 60.9885H948.182V55.4702C948.182 52.0248 946.971 49.5173 943.303 49.5173Z" fill="white"/>
<path fill-rule="evenodd" clip-rule="evenodd" d="M963.35 55.3874C963.35 54.3795 964.281 53.4616 965.989 53.4616C967.849 53.4616 969.346 54.3641 969.682 54.5691V50.6683C969.682 50.6683 968.499 49.5216 965.593 49.5216C962.53 49.5216 959.979 51.327 959.979 55.2133C959.979 59.0991 962.294 61.2541 965.585 61.2541C968.156 61.2541 969.688 59.8312 969.688 59.8312V56.1266C969.203 56.3995 967.853 57.3441 966.007 57.3441C964.053 57.3441 963.35 56.4383 963.35 55.3874ZM922.639 49.777C922.64 49.7795 922.834 50.6179 922.578 51.7141C922.448 52.2716 922.208 52.7458 922.498 52.7458C922.697 52.7458 922.697 52.5791 922.957 51.9816C923.336 51.1083 924.136 49.5187 926.004 49.5187C927.781 49.5187 928.618 50.6058 928.895 51.6237C929.106 52.397 928.921 52.7458 929.179 52.7458C929.361 52.7458 929.425 52.3445 929.65 51.837C930.054 50.9279 930.933 49.5187 932.711 49.5187C935.394 49.5187 936.418 51.4699 936.418 54.397V60.9924H932.433V54.912C932.433 53.8983 932.27 52.9149 931.353 52.9149C930.502 52.9149 930.106 54.4324 930.106 55.412V60.9949H926.047V54.9124C926.047 53.6154 925.866 52.9154 924.961 52.9154C924.177 52.9154 923.72 54.3116 923.72 55.4124V60.9928H919.677V49.777H922.639ZM949.508 49.7925C949.51 49.7933 950.198 50.1929 951.533 50.1929C952.871 50.1929 953.551 49.7925 953.551 49.7925V60.9953H949.508V49.7925ZM982.88 49.7925C982.882 49.7933 983.57 50.1929 984.906 50.1929C986.243 50.1929 986.923 49.7925 986.923 49.7925V60.9953H982.88V49.7925ZM958.901 46.3816V60.9953H954.859V46.3816H958.901ZM974.486 46.3816C974.486 46.3829 974.653 46.8029 974.653 48.0521C974.653 49.8966 974.255 51.3979 974.067 51.9699C973.967 52.2729 973.789 52.7404 974.044 52.7487C974.192 52.7533 974.28 52.5299 974.461 52.1424C974.64 51.7545 975.53 49.5212 977.87 49.5212C981.093 49.5212 981.567 52.1795 981.567 55.0583V60.9949H977.525V54.8145C977.525 53.547 977.261 52.9174 976.417 52.9174C975.399 52.9174 975.039 54.5058 975.039 55.4149V60.9949H970.996V46.3812L974.486 46.3816ZM991.25 49.777C991.251 49.7795 991.445 50.6179 991.189 51.7141C991.059 52.2716 990.819 52.7458 991.109 52.7458C991.308 52.7458 991.308 52.5791 991.568 51.9816C991.947 51.1083 992.747 49.5187 994.615 49.5187C996.473 49.5187 997.21 50.6108 997.506 51.6237C997.704 52.3024 997.532 52.7458 997.79 52.7458C997.972 52.7458 998.036 52.3445 998.261 51.837C998.664 50.9279 999.544 49.5187 1001.32 49.5187C1004 49.5187 1005.03 51.4699 1005.03 54.397V60.9924H1001.04V54.912C1001.04 53.8983 1000.88 52.9149 999.964 52.9149C999.113 52.9149 998.717 54.4324 998.717 55.412V60.9949H994.658V54.9124C994.658 53.6154 994.477 52.9154 993.572 52.9154C992.788 52.9154 992.331 54.3116 992.331 55.4124V60.9928H988.288V49.777H991.25ZM951.517 46.2683C950.151 46.2683 949.043 46.9966 949.043 47.895C949.043 48.7933 950.151 49.5216 951.517 49.5216C952.884 49.5216 953.992 48.7933 953.992 47.895C953.992 46.9966 952.885 46.2683 951.517 46.2683ZM984.89 46.2683C983.523 46.2683 982.415 46.9966 982.415 47.895C982.415 48.7933 983.523 49.5216 984.89 49.5216C986.256 49.5216 987.364 48.7933 987.364 47.895C987.364 46.9966 986.256 46.2683 984.89 46.2683Z" fill="white"/>
<path fill-rule="evenodd" clip-rule="evenodd" d="M1011.92 58.5785C1010.99 58.5785 1010.31 57.3947 1010.31 55.7452C1010.31 54.1431 1011.01 52.9127 1011.88 52.9127C1013.01 52.9127 1013.49 53.9514 1013.49 55.7452C1013.49 57.6114 1013.05 58.5785 1011.92 58.5785ZM1013.02 49.5148C1010.95 49.5148 1009.99 51.0835 1009.58 51.9773C1009.31 52.5677 1009.32 52.7414 1009.12 52.7414C1008.83 52.7414 1009.07 52.2673 1009.2 51.7098C1009.46 50.6119 1009.26 49.7731 1009.26 49.7731H1006.3V64.0826H1010.34V59.546C1010.82 60.3631 1011.71 61.236 1013.07 61.236C1016 61.236 1017.47 58.7456 1017.47 55.381C1017.47 51.5677 1015.71 49.5148 1013.03 49.5148" fill="white"/>
<path fill-rule="evenodd" clip-rule="evenodd" d="M905.387 52.9007C905.659 52.8682 905.919 52.8665 906.159 52.9007C906.297 52.5807 906.321 52.0294 906.196 51.429C906.011 50.5365 905.761 49.9965 905.243 50.0807C904.725 50.1649 904.706 50.8115 904.891 51.7036C904.995 52.2057 905.181 52.6349 905.387 52.9007Z" fill="white"/>
<path fill-rule="evenodd" clip-rule="evenodd" d="M900.944 53.607C901.314 53.7707 901.542 53.8795 901.631 53.7845C901.688 53.7253 901.671 53.6124 901.582 53.467C901.4 53.1666 901.023 52.8616 900.624 52.6903C899.808 52.3366 898.835 52.4541 898.084 52.9974C897.836 53.1803 897.601 53.4336 897.635 53.5874C897.646 53.637 897.683 53.6745 897.77 53.687C897.974 53.7103 898.688 53.347 899.511 53.2961C900.091 53.2603 900.573 53.4432 900.944 53.607Z" fill="white"/>
<path fill-rule="evenodd" clip-rule="evenodd" d="M900.2 54.0353C899.717 54.112 899.451 54.2724 899.28 54.4212C899.135 54.5495 899.045 54.6916 899.045 54.7912C899.046 54.8387 899.066 54.8662 899.082 54.8799C899.104 54.8995 899.13 54.9103 899.162 54.9103C899.27 54.9103 899.515 54.8116 899.515 54.8116C900.186 54.5695 900.629 54.5991 901.068 54.6491C901.311 54.6766 901.426 54.6916 901.479 54.6078C901.494 54.5837 901.513 54.5316 901.465 54.4524C901.352 54.2678 900.864 53.9558 900.2 54.0353Z" fill="white"/>
<path fill-rule="evenodd" clip-rule="evenodd" d="M903.888 55.6071C904.215 55.7692 904.576 55.7054 904.694 55.465C904.811 55.2246 904.641 54.898 904.313 54.7359C903.985 54.5738 903.625 54.6375 903.507 54.8779C903.39 55.1188 903.56 55.445 903.888 55.6071Z" fill="white"/>
<path fill-rule="evenodd" clip-rule="evenodd" d="M905.994 53.7535C905.728 53.7489 905.508 54.0431 905.501 54.411C905.495 54.7789 905.706 55.0801 905.972 55.0847C906.238 55.0893 906.459 54.7951 906.465 54.4272C906.471 54.0597 906.26 53.7581 905.994 53.7535Z" fill="white"/>
<path fill-rule="evenodd" clip-rule="evenodd" d="M888.115 60.3824C888.049 60.2986 887.94 60.3241 887.834 60.3491C887.761 60.3666 887.678 60.3857 887.586 60.3845C887.391 60.3807 887.225 60.2966 887.132 60.1524C887.01 59.9649 887.017 59.6853 887.151 59.3653L887.214 59.222C887.427 58.7395 887.784 57.9324 887.383 57.1632C887.081 56.5841 886.589 56.2237 885.997 56.1478C885.428 56.0753 884.843 56.2874 884.47 56.702C883.882 57.3562 883.789 58.2466 883.903 58.5612C883.945 58.6762 884.01 58.7082 884.057 58.7149C884.158 58.7282 884.306 58.6549 884.398 58.4036L884.425 58.322C884.466 58.1891 884.543 57.9416 884.669 57.7432C884.822 57.5041 885.058 57.3395 885.336 57.2791C885.619 57.2178 885.909 57.2724 886.151 57.4324C886.564 57.7041 886.722 58.2132 886.546 58.6987C886.455 58.9499 886.307 59.4303 886.34 59.8249C886.406 60.6236 886.894 60.9445 887.332 60.9786C887.758 60.9949 888.056 60.7536 888.131 60.5778C888.175 60.4736 888.138 60.4103 888.114 60.3832" fill="white"/>
<path fill-rule="evenodd" clip-rule="evenodd" d="M892.168 45.7118C893.558 44.0943 895.268 42.688 896.801 41.8984C896.854 41.8709 896.91 41.9289 896.882 41.9814C896.76 42.2034 896.525 42.6789 896.451 43.0393C896.44 43.0955 896.501 43.1376 896.548 43.1055C897.501 42.4509 899.16 41.7493 900.615 41.6593C900.677 41.6555 900.707 41.736 900.658 41.7747C900.436 41.9455 900.194 42.1822 900.018 42.4214C899.988 42.4622 900.016 42.5205 900.067 42.5209C901.088 42.5284 902.528 42.8884 903.467 43.4189C903.53 43.4547 903.485 43.5784 903.414 43.5622C901.994 43.2343 899.669 42.9855 897.254 43.5789C895.098 44.1084 893.453 44.9263 892.252 45.8055C892.192 45.8501 892.118 45.7688 892.168 45.7118ZM899.09 61.3833L899.09 61.3842L899.091 61.3858L899.09 61.3833ZM904.821 62.0646C904.862 62.0471 904.89 62 904.886 61.9529C904.88 61.895 904.829 61.8529 904.771 61.8588C904.771 61.8588 901.805 62.3008 899.003 61.2679C899.309 60.2688 900.12 60.6296 901.347 60.7292C903.557 60.8621 905.539 60.5367 907.003 60.1134C908.272 59.7467 909.939 59.0234 911.233 57.9942C911.67 58.96 911.824 60.0234 911.824 60.0234C911.824 60.0234 912.162 59.9625 912.445 60.1375C912.711 60.3029 912.907 60.6467 912.773 61.5358C912.501 63.1967 911.8 64.545 910.622 65.7854C909.905 66.5629 909.035 67.2387 908.038 67.7304C907.509 68.0104 906.946 68.2525 906.351 68.4479C901.91 69.9091 897.363 68.3029 895.898 64.8537C895.781 64.5946 895.682 64.3229 895.604 64.0392C894.98 61.7663 895.51 59.0392 897.167 57.3225C897.269 57.2134 897.374 57.0838 897.374 56.9217C897.374 56.7863 897.288 56.6434 897.214 56.5417C896.634 55.6946 894.625 54.2513 895.029 51.458C895.318 49.4513 897.061 48.038 898.685 48.1218L899.097 48.1455C899.801 48.1876 900.415 48.2784 900.995 48.303C901.965 48.3455 902.837 48.2034 903.87 47.3363C904.218 47.0438 904.498 46.7901 904.971 46.7097C905.021 46.7009 905.144 46.6563 905.391 46.668C905.644 46.6818 905.884 46.7513 906.099 46.8959C906.927 47.4509 907.045 48.7955 907.088 49.7788C907.112 50.3401 907.18 51.6984 907.203 52.0884C907.255 52.9801 907.488 53.1055 907.959 53.2617C908.224 53.3496 908.469 53.4151 908.832 53.5176C909.928 53.8276 910.578 54.1421 910.988 54.5463C911.232 54.7988 911.346 55.0671 911.381 55.323C911.51 56.273 910.649 57.4463 908.369 58.5125C905.876 59.6779 902.851 59.9729 900.762 59.7384L900.029 59.655C898.358 59.4284 897.405 61.6038 898.408 63.0946C899.054 64.0554 900.815 64.6804 902.577 64.6808C906.617 64.6812 909.722 62.9438 910.877 61.4433L910.969 61.3108C911.026 61.2246 910.979 61.1771 910.909 61.2258C909.965 61.8763 905.773 64.4583 901.29 63.6812C901.29 63.6812 900.745 63.5908 900.248 63.3962C899.853 63.2413 899.025 62.8579 898.925 62.0033C902.543 63.1304 904.821 62.0646 904.821 62.0646ZM884.948 53.4042C883.689 53.6505 882.58 54.3688 881.902 55.3613C881.497 55.0209 880.742 54.3617 880.608 54.1046C879.525 52.0338 881.789 48.008 883.371 45.7343C887.281 40.1155 893.403 35.8626 896.238 36.6343C896.698 36.7656 898.224 38.5476 898.224 38.5476C898.224 38.5476 895.391 40.131 892.764 42.338C889.223 45.0834 886.55 49.0738 884.948 53.4042ZM887.062 62.9063C886.872 62.9392 886.677 62.9521 886.481 62.9471C884.588 62.8958 882.543 61.1792 882.34 59.1434C882.115 56.893 883.257 55.1613 885.278 54.7505C885.52 54.7013 885.812 54.673 886.127 54.6896C887.259 54.7521 888.928 55.628 889.309 58.1129C889.647 60.3138 889.111 62.5546 887.062 62.9063ZM912.709 58.9213C912.693 58.8634 912.587 58.4746 912.442 58.0059C912.297 57.5367 912.146 57.2071 912.146 57.2071C912.729 56.3292 912.739 55.5438 912.661 55.0992C912.579 54.548 912.351 54.0784 911.892 53.5926C911.432 53.1071 910.493 52.6096 909.173 52.2363L908.48 52.0426C908.477 52.0138 908.444 50.398 908.414 49.7042C908.392 49.2026 908.35 48.4197 908.108 47.6488C907.821 46.6051 907.32 45.6918 906.695 45.1076C908.42 43.3068 909.497 41.3226 909.494 39.621C909.489 36.3481 905.498 35.3577 900.58 37.4089L899.538 37.8543C899.533 37.8497 897.654 35.9927 897.626 35.9677C892.018 31.0414 874.486 50.6692 880.091 55.4363L881.316 56.4817C880.999 57.3109 880.874 58.2609 880.976 59.2821C881.106 60.5942 881.778 61.8517 882.868 62.8233C883.901 63.7458 885.261 64.33 886.58 64.3287C888.761 69.3916 893.745 72.4975 899.589 72.6725C905.857 72.86 911.12 69.8975 913.325 64.5758C913.469 64.2025 914.081 62.5196 914.081 61.0338C914.081 59.5409 913.243 58.9213 912.709 58.9213Z" fill="white"/>
<path d="M1160.1 45.1251C1157.4 45.1251 1154.76 47.5263 1154.45 50.9957V45.4112H1150.57V62.2501H1154.5V54.0994C1154.5 51.8162 1156.15 48.5954 1160.1 48.5954V45.1251Z" fill="white"/>
<path d="M1201.32 59.5544V48.0177H1203.59C1206.63 48.0177 1209.09 49.8784 1209.09 53.693C1209.09 57.5075 1206.63 59.5544 1203.59 59.5544H1201.32ZM1197.43 62.2525H1204.07C1208.14 62.2525 1213.17 59.6474 1213.17 53.693C1213.17 47.8316 1208.14 45.4126 1204.07 45.4126H1197.43V62.2525Z" fill="white"/>
<path d="M1182.55 53.8793C1182.55 50.809 1184.16 48.297 1186.82 48.297C1189.38 48.297 1190.8 50.809 1190.8 53.8793C1190.8 56.9495 1189.38 59.4615 1186.82 59.4615C1184.16 59.4615 1182.55 56.9495 1182.55 53.8793ZM1178.57 54.0653C1178.57 59.0894 1181.22 62.6248 1185.4 62.6248C1188.43 62.6248 1190.23 60.671 1191.18 57.5077V62.2527H1195.07V45.4128H1191.18V49.8786C1190.33 46.9014 1188.52 45.1337 1185.68 45.1337C1181.41 45.1337 1178.57 48.9482 1178.57 54.0653Z" fill="white"/>
<path d="M1090.03 62.6248C1085.19 62.6248 1082.34 58.8103 1082.34 54.0653C1082.34 49.1343 1085.47 45.1337 1091.45 45.1337C1097.61 45.1337 1099.7 49.2274 1099.79 51.5533H1095.34C1095.24 50.2508 1094.1 48.297 1091.35 48.297C1088.41 48.297 1086.52 50.809 1086.52 53.8793C1086.52 56.9495 1088.41 59.4615 1091.35 59.4615C1094.01 59.4615 1095.15 57.4147 1095.62 55.3679H1091.35V53.6931H1100.31V62.2527H1096.38V56.8565C1096.09 58.8103 1094.86 62.6248 1090.03 62.6248Z" fill="white"/>
<path d="M1108.27 62.6246C1104.57 62.6246 1102.3 60.2056 1102.3 55.3677V45.4126H1106.28V55.3677C1106.28 57.8797 1107.51 59.0892 1109.6 59.0892C1113.68 59.0892 1115.2 54.1581 1115.2 50.7158V45.4126H1119.18V62.2525H1115.29V56.0189C1114.53 59.4613 1112.45 62.6246 1108.27 62.6246Z" fill="white"/>
<path d="M1142.98 45.1248C1139.58 45.1248 1137.44 48.3453 1136.74 51.3231C1136.62 47.3325 1134.62 45.1248 1131.42 45.1248C1128.65 45.1248 1126.09 47.5441 1125.42 51.3713V45.4113H1121.54V62.2516H1125.47V56.2144C1125.47 54.7177 1126.11 48.5756 1130.07 48.5756C1132.63 48.5756 1132.9 50.8451 1132.9 53.9472V62.2516H1136.83V56.2144C1136.83 54.7177 1137.49 48.5756 1141.45 48.5756C1144.01 48.5756 1144.28 50.8451 1144.28 53.9472V62.2516H1148.21V52.2906C1148.23 47.512 1146.51 45.1248 1142.98 45.1248Z" fill="white"/>
<path d="M1168.54 45.1248C1163.45 45.1248 1160 49.0411 1160 53.8748C1160 59.2009 1163.28 62.6247 1168.54 62.6247C1173.63 62.6247 1177.14 58.7086 1177.14 53.8748C1177.14 48.5488 1173.8 45.1248 1168.54 45.1248ZM1168.54 59.644C1165.58 59.644 1163.66 57.1823 1163.66 53.8748C1163.66 50.5673 1165.58 48.1056 1168.54 48.1056C1171.5 48.1056 1173.35 50.5673 1173.35 53.8748C1173.35 57.1823 1171.5 59.644 1168.54 59.644Z" fill="white"/>
</g>
</g>
<path d="M0 1H1440V-1H0V1Z" fill="#0F141C" mask="url(#path-1-outside-1_1_11)"/>
<defs>
<filter id="filter0_f_1_11" x="-16" y="-288" width="1472" height="576" filterUnits="userSpaceOnUse" color-interpolation-filters="sRGB">
<feFlood flood-opacity="0" result="BackgroundImageFix"/>
<feBlend mode="normal" in="SourceGraphic" in2="BackgroundImageFix" result="shape"/>
<feGaussianBlur stdDeviation="48" result="effect1_foregroundBlur_1_11"/>
</filter>
<clipPath id="clip0_1_11">
<path d="M0 0H1440V258H0V0Z" fill="white"/>
</clipPath>
<clipPath id="clip1_1_11">
<rect width="112" height="42" fill="white" transform="translate(226 32)"/>
</clipPath>
<clipPath id="clip2_1_11">
<rect width="74" height="44" fill="white" transform="translate(566 31)"/>
</clipPath>
<clipPath id="clip3_1_11">
<rect width="111" height="46" fill="white" transform="translate(704 30)"/>
</clipPath>
</defs>
</svg>
